<?xml version="1.0" standalone="no"?>
<!DOCTYPE svg PUBLIC "-//W3C//DTD SVG 20010904//EN"
 "http://www.w3.org/TR/2001/REC-SVG-20010904/DTD/svg10.dtd">
<svg version="1.0" xmlns="http://www.w3.org/2000/svg"
 width="300.000000pt" height="285.000000pt" viewBox="0 0 300.000000 285.000000"
 preserveAspectRatio="xMidYMid meet">
<metadata>
Created by potrace 1.10, written by Peter Selinger 2001-2011
</metadata>
<g transform="translate(0.000000,285.000000) scale(0.100000,-0.100000)"
fill="#000000" stroke="none">
<path d="M1193 2450 c3 -11 1 -20 -5 -20 -5 0 -6 -4 -3 -10 10 -16 -1 -12 -41
15 -38 26 -56 26 -35 1 27 -32 96 -49 168 -40 54 6 62 9 38 14 -25 5 -27 7
-11 13 10 4 16 10 13 13 -3 3 -23 -4 -44 -15 l-39 -20 4 30 c5 34 -5 38 -18 7
-8 -22 -9 -22 -9 5 -1 15 -6 27 -12 27 -6 0 -9 -9 -6 -20z"/>
<path d="M1856 2454 c-30 -29 -13 -88 26 -96 19 -3 78 31 78 46 0 5 -7 3 -15
-4 -12 -10 -18 -10 -32 1 -11 10 -14 10 -9 2 4 -7 3 -13 -2 -13 -5 0 -12 9
-15 20 -3 11 -1 20 4 20 5 0 9 5 9 10 0 6 -6 9 -12 8 -7 -2 -12 3 -10 10 3 16
-3 15 -22 -4z"/>
<path d="M945 2417 c4 -14 2 -35 -5 -46 -8 -16 -8 -21 2 -21 23 0 59 31 51 43
-4 7 -8 19 -8 27 0 8 -10 16 -23 18 -20 3 -22 0 -17 -21z"/>
<path d="M1194 2343 c-12 -73 -44 -177 -55 -184 -6 -4 -8 -12 -4 -19 5 -7 4
-11 -1 -7 -5 3 -18 -14 -28 -36 -10 -23 -22 -50 -27 -59 -5 -10 -9 -24 -9 -32
0 -8 -5 -18 -12 -22 -7 -4 -8 -3 -4 4 4 7 3 12 -3 12 -14 0 -24 -37 -13 -56 7
-12 17 1 46 60 25 53 45 80 66 91 26 13 28 18 20 45 -6 20 -3 47 9 88 20 65
35 152 27 152 -3 0 -8 -17 -12 -37z"/>
<path d="M981 2348 c-6 -17 -5 -24 6 -26 11 -3 9 -7 -8 -16 -25 -12 -39 -56
-19 -56 8 0 9 -10 5 -30 -4 -20 -3 -30 5 -30 7 0 9 -8 5 -19 -3 -11 -1 -22 5
-26 5 -3 10 -11 10 -16 0 -6 -9 -4 -21 4 -22 16 -62 11 -56 -7 2 -6 17 -13 33
-14 43 -5 65 -34 57 -73 -4 -23 -3 -30 5 -25 7 4 12 2 12 -3 0 -8 6 -7 19 1
19 12 18 36 -3 50 -7 5 -4 12 8 21 15 11 17 17 7 35 -14 26 -14 45 -1 37 6 -3
10 -1 10 4 0 6 -7 11 -15 11 -8 0 -15 7 -15 15 0 8 4 15 10 15 11 0 1 32 -14
43 -8 5 -6 10 3 16 12 8 12 12 -3 26 -12 13 -14 20 -6 30 8 10 8 19 0 34 -14
27 -29 27 -39 -1z"/>
<path d="M918 2304 c-14 -24 -23 -32 -29 -23 -4 7 -5 18 -2 26 3 7 1 13 -5 13
-5 0 -13 -7 -16 -16 -4 -11 -12 -14 -24 -9 -9 4 -26 8 -38 9 -11 2 -25 5 -30
9 -5 3 -17 0 -27 -7 -15 -12 -7 -16 63 -36 70 -20 81 -26 86 -49 3 -14 10 -37
14 -51 12 -35 12 -2 0 39 -8 29 -6 40 12 70 22 34 31 61 22 61 -3 0 -14 -16
-26 -36z"/>
<path d="M1822 2318 c-16 -16 -16 -51 1 -46 6 3 12 17 13 31 1 31 2 31 -14 15z"/>
<path d="M1946 2295 c-11 -8 -30 -15 -42 -15 -12 0 -27 -7 -34 -15 -7 -8 -19
-15 -26 -15 -18 0 -18 -11 -1 -34 13 -17 14 -17 30 7 21 32 98 69 139 67 47
-3 56 0 33 10 -31 13 -78 11 -99 -5z"/>
<path d="M1270 2193 c0 -15 -5 -35 -10 -43 -8 -12 -10 -11 -10 7 0 38 -10 54
-25 40 -10 -10 -10 -17 1 -39 8 -15 13 -33 12 -40 -5 -21 52 -11 78 13 29 27
23 40 -6 14 -24 -22 -26 -13 -4 19 9 15 11 26 5 30 -5 4 -15 -2 -21 -11 -10
-16 -10 -16 -5 4 3 12 1 24 -5 28 -6 4 -10 -5 -10 -22z"/>
<path d="M1705 2190 c-24 -9 -50 -38 -42 -46 3 -3 14 -1 25 5 25 13 92 14 111
2 9 -6 21 -5 32 2 17 10 17 13 2 29 -17 19 -90 24 -128 8z"/>
<path d="M1871 2184 c-1 -24 27 -40 43 -24 5 5 24 10 40 10 23 0 27 3 18 12
-9 9 -22 9 -52 2 -33 -9 -40 -9 -43 5 -3 11 -5 9 -6 -5z"/>
<path d="M1853 2119 c-5 -29 -7 -30 -19 -14 -7 9 -17 14 -23 11 -14 -9 -2 -36
15 -36 10 0 12 -9 7 -32 -8 -46 9 -26 23 25 6 23 14 50 19 60 4 10 3 17 -4 17
-6 0 -14 -14 -18 -31z"/>
<path d="M1895 2100 c-3 -4 9 -22 26 -39 24 -25 34 -29 45 -20 7 6 17 8 23 5
5 -3 14 8 20 25 10 30 10 31 -14 25 -14 -3 -37 -9 -51 -12 -18 -5 -25 -3 -21
4 4 5 0 12 -8 16 -8 3 -17 1 -20 -4z"/>
<path d="M1295 2090 c4 -6 -1 -7 -11 -3 -11 4 -15 2 -12 -7 2 -7 14 -14 26
-15 11 -1 18 3 15 8 -4 6 4 7 21 3 14 -3 26 -2 26 3 0 5 -10 11 -22 15 -34 9
-50 7 -43 -4z"/>
<path d="M844 2059 c5 -30 5 -32 -6 -11 -10 20 -28 30 -28 16 0 -22 50 -84 68
-84 6 0 18 12 27 28 10 15 27 35 39 44 15 13 17 18 6 18 -23 0 -42 -16 -56
-47 -12 -26 -12 -24 -7 22 6 49 -9 56 -20 10 -4 -18 -5 -18 -6 2 0 12 -6 25
-12 29 -8 4 -9 -4 -5 -27z"/>
<path d="M1221 2076 c-12 -15 -4 -49 10 -40 5 3 8 16 7 29 -3 29 -2 29 -17 11z"/>
<path d="M1191 2062 c-1 -9 -8 -11 -22 -7 -16 5 -19 4 -14 -6 6 -9 2 -11 -13
-7 -40 11 -13 -10 35 -26 74 -25 147 -17 128 14 -6 10 0 12 26 6 31 -6 32 -5
18 10 -15 14 -19 14 -55 -1 -21 -9 -41 -21 -45 -26 -9 -16 -47 10 -52 36 -2
11 -5 14 -6 7z"/>
<path d="M766 2031 c-4 -5 10 -19 29 -31 43 -26 41 -34 -4 -19 -37 13 -80 3
-46 -11 11 -5 41 -9 68 -9 30 -1 47 -5 47 -13 0 -10 3 -9 9 1 6 9 14 10 24 5
13 -8 14 -12 2 -34 -12 -21 -14 -22 -15 -6 0 19 0 19 -14 1 -12 -16 -12 -22 0
-40 9 -13 10 -25 4 -35 -8 -13 -10 -12 -10 3 0 10 -7 20 -16 24 -9 3 -13 12
-10 22 4 10 -1 7 -13 -6 -20 -24 -47 -32 -35 -10 6 10 4 10 -7 0 -16 -16 -29
-17 -29 -3 0 6 16 20 36 32 36 21 36 22 13 30 -29 11 -89 -14 -108 -44 -11
-18 -10 -23 7 -40 10 -11 36 -25 57 -33 35 -11 41 -18 53 -64 8 -28 12 -55 8
-58 -4 -4 -21 -1 -39 7 -18 7 -54 14 -82 15 -27 0 -56 4 -62 8 -8 5 -13 3 -13
-6 0 -10 13 -14 49 -14 27 0 54 -3 60 -7 17 -11 13 -29 -4 -22 -8 3 -22 9 -32
13 -10 4 -14 3 -10 -4 4 -6 3 -13 -2 -15 -5 -1 -3 -9 5 -16 12 -11 14 -10 14
2 0 9 8 15 18 14 9 -1 36 0 60 0 57 3 73 33 47 88 -17 36 -17 38 0 51 23 16
26 13 35 -39 8 -40 6 -46 -27 -86 -19 -24 -42 -42 -52 -41 -32 3 -39 -1 -46
-28 -5 -21 -8 -24 -15 -13 -15 24 -22 4 -12 -33 10 -37 8 -43 -22 -67 -15 -11
-18 -11 -12 -1 5 7 10 32 12 55 2 31 0 37 -7 23 -6 -9 -15 -14 -21 -11 -7 5
-9 -2 -6 -19 3 -18 0 -28 -11 -32 -13 -5 -14 -7 -1 -15 12 -8 9 -10 -11 -10
-28 0 -69 -33 -69 -56 0 -11 9 -8 34 11 21 16 50 28 75 29 38 3 40 1 66 -45
22 -42 45 -70 45 -56 0 2 -14 30 -30 61 -24 44 -28 61 -20 76 5 10 10 29 10
42 1 28 22 58 42 58 8 0 20 6 27 13 11 10 12 8 7 -9 -5 -16 0 -23 21 -32 24
-11 26 -11 11 1 -29 23 -17 77 16 77 5 0 2 -6 -8 -13 -16 -12 -15 -16 16 -54
18 -23 35 -42 38 -42 3 -1 6 11 7 26 0 14 -2 21 -6 14 -5 -8 -14 -4 -30 13
-22 23 -22 23 -2 29 13 3 22 -1 25 -12 2 -9 2 9 0 39 -3 30 -9 57 -14 60 -17
11 -3 58 29 99 28 34 30 42 17 47 -12 4 -15 13 -10 28 9 29 8 28 38 13 23 -12
24 -16 11 -27 -19 -16 -19 -31 0 -24 9 4 15 0 15 -7 0 -11 3 -11 10 1 14 22
13 29 -17 57 -17 16 -21 24 -11 20 12 -4 15 -2 11 9 -6 16 -29 19 -38 4 -10
-16 -23 -12 -21 8 1 13 -7 17 -29 17 -21 0 -42 11 -70 37 -42 40 -50 44 -59
29z m148 -143 c-5 -7 -7 -26 -6 -43 3 -35 -12 -24 -22 17 -5 20 -2 28 11 31
10 3 19 5 21 6 2 0 0 -4 -4 -11z"/>
<path d="M938 2018 c-23 -24 -23 -31 2 -23 15 5 22 0 29 -18 6 -14 14 -28 20
-31 5 -3 22 -38 37 -76 15 -39 29 -68 32 -66 8 8 -20 80 -49 129 -29 47 -29
47 -6 47 20 1 21 1 4 11 -10 6 -21 8 -25 5 -3 -4 -11 4 -16 17 -11 23 -12 23
-28 5z"/>
<path d="M1626 2014 c-17 -16 -22 -64 -7 -64 5 0 14 6 20 14 23 27 62 29 85 4
18 -20 21 -20 24 -5 2 9 10 17 19 17 10 0 13 6 9 16 -3 9 -6 18 -6 20 0 9 -39
4 -45 -6 -4 -6 -17 -4 -35 5 -36 19 -45 19 -64 -1z"/>
<path d="M1970 2015 c-7 -9 -17 -12 -22 -7 -11 11 -79 2 -72 -9 3 -5 15 -9 27
-9 17 0 19 -2 8 -9 -11 -7 -12 -13 -3 -23 9 -11 7 -17 -8 -28 -11 -8 -20 -22
-20 -32 0 -10 -4 -18 -10 -18 -5 0 -10 8 -10 17 0 12 -3 14 -11 6 -8 -8 -6
-18 7 -37 l17 -27 26 48 c15 26 41 69 59 96 32 45 38 64 12 32z"/>
<path d="M1791 2001 c10 -14 16 -16 35 -7 12 6 22 11 21 12 -1 1 -17 4 -34 7
-30 6 -32 5 -22 -12z"/>
<path d="M1348 1956 c-10 -7 -18 -18 -18 -25 0 -6 -7 -14 -15 -17 -10 -4 -13
-13 -10 -24 3 -10 1 -21 -5 -25 -5 -3 -10 -15 -10 -27 0 -18 -2 -19 -16 -7 -9
8 -12 15 -6 17 8 2 8 10 0 27 -7 15 -16 21 -26 18 -10 -4 -13 -2 -8 5 9 15
-23 16 -44 2 -12 -7 -12 -10 -1 -10 9 0 11 -8 7 -24 -8 -31 30 -58 77 -54 18
1 38 -1 44 -5 12 -8 33 24 48 73 7 22 6 23 -9 11 -26 -22 -30 -5 -6 29 25 35
23 55 -2 36z"/>
<path d="M1943 1916 c3 -8 -3 -17 -16 -21 -21 -7 -20 -8 6 -12 15 -2 45 -21
67 -42 40 -38 40 -38 40 -12 -1 28 -21 57 -60 84 -30 21 -44 22 -37 3z"/>
<path d="M1788 1894 c0 -16 -1 -35 -1 -41 1 -18 -94 -17 -113 1 -14 15 -54 11
-54 -5 0 -5 13 -12 30 -15 16 -4 42 -17 56 -31 20 -18 30 -21 38 -13 8 8 7 13
-4 20 -12 8 -11 10 7 10 29 0 54 -10 48 -21 -3 -4 3 -13 13 -18 15 -8 23 -6
37 9 20 22 10 45 -20 45 -16 0 -20 7 -20 37 0 44 -14 63 -17 22z"/>
<path d="M1085 1890 c-3 -5 0 -7 7 -5 8 3 22 -1 32 -8 17 -13 17 -15 -12 -46
-21 -23 -31 -29 -35 -19 -5 12 -12 -35 -8 -55 1 -5 -3 -6 -9 -2 -7 4 -9 -2 -4
-19 9 -38 -18 -34 -35 5 -12 27 -17 30 -40 23 -14 -4 -36 -8 -49 -9 -28 -2
-30 -19 -3 -23 15 -2 20 -10 19 -28 -1 -13 -8 -24 -16 -24 -8 0 -10 -5 -6 -12
15 -23 10 -132 -6 -146 -13 -11 -12 -12 6 -3 18 9 27 6 48 -14 31 -29 32 -35
6 -35 -11 0 -27 -11 -36 -24 -8 -14 -21 -23 -29 -20 -7 3 -15 -5 -19 -21 -6
-23 -11 -26 -31 -21 -20 5 -25 2 -25 -11 0 -15 -2 -16 -10 -3 -14 21 -13 23
20 65 36 45 33 55 -9 24 -62 -46 -62 -109 0 -109 33 0 33 -1 17 -47 -7 -19
-19 -33 -29 -33 -23 0 -89 -83 -89 -112 l0 -23 13 24 c18 36 31 35 50 -4 16
-34 19 -35 71 -35 39 0 55 -4 60 -15 5 -13 -2 -15 -41 -10 -58 7 -90 -12 -99
-60 -3 -19 -8 -35 -10 -35 -1 0 -18 9 -37 20 -26 15 -34 26 -30 40 4 13 0 20
-10 20 -26 0 -40 -127 -17 -155 27 -32 79 -10 142 58 47 51 59 59 68 47 8 -13
10 -13 10 1 0 23 34 51 54 43 9 -3 22 -2 29 4 12 10 64 8 75 -2 3 -4 -4 -16
-15 -29 -11 -12 -23 -33 -26 -46 -7 -30 16 -77 42 -84 11 -3 26 -18 32 -34 25
-62 34 -74 58 -79 14 -3 34 -10 44 -15 16 -9 18 -7 11 13 -10 32 -45 78 -61
78 -7 0 -26 14 -43 30 -24 24 -29 34 -21 48 6 11 6 24 0 33 -14 22 -11 69 5
69 21 0 36 -23 26 -40 -19 -30 -12 -48 19 -46 16 1 33 5 38 9 4 5 2 7 -6 5 -7
-2 -16 3 -18 10 -3 8 1 10 11 6 21 -8 20 8 -2 32 -10 11 -17 25 -15 31 2 6
-16 28 -41 49 -31 25 -46 46 -46 62 l0 23 22 -21 c20 -19 32 -24 42 -17 2 1
14 -7 25 -17 19 -17 20 -21 6 -28 -32 -19 1 -46 34 -29 10 6 28 12 42 14 13 2
33 8 43 12 17 7 14 10 -18 22 -39 13 -61 9 -50 -9 4 -6 0 -14 -7 -19 -19 -12
-32 -11 -24 1 7 11 -12 76 -28 98 -6 7 -5 12 1 12 13 0 34 -35 26 -42 -2 -3 3
-11 13 -19 15 -12 16 -12 8 1 -10 16 -11 21 -13 59 -2 16 -7 21 -16 18 -16 -6
-24 15 -18 49 3 17 12 21 43 22 47 2 79 20 79 44 0 10 6 18 13 18 16 0 57 -29
42 -30 -6 0 -17 6 -24 13 -10 10 -10 7 0 -16 12 -27 14 -27 26 -11 7 10 13 22
13 27 0 11 30 41 31 30 1 -4 4 5 8 21 9 45 35 55 65 27 22 -21 27 -59 6 -46
-5 3 -12 0 -16 -6 -5 -8 -1 -10 13 -7 24 6 56 -9 48 -23 -3 -5 0 -6 8 -4 7 3
22 -4 33 -16 16 -19 17 -22 2 -16 -12 4 -15 2 -11 -9 3 -7 0 -14 -6 -14 -6 0
-11 -10 -10 -22 l0 -23 9 23 c5 12 14 22 19 22 17 0 21 31 7 58 -14 26 -13 27
15 27 16 0 31 -6 34 -12 2 -7 0 -13 -6 -13 -6 0 -8 -7 -5 -16 4 -10 2 -13 -6
-8 -8 5 -9 -2 -4 -22 4 -16 8 -37 9 -46 2 -25 17 -10 17 17 0 13 4 26 9 29 18
12 3 -58 -18 -80 -26 -27 -27 -37 -2 -29 15 5 21 0 26 -24 3 -16 14 -32 23
-35 54 -19 75 -24 88 -19 8 3 11 9 8 14 -3 5 2 6 10 3 9 -3 16 -12 16 -19 0
-8 8 -11 20 -8 12 3 19 8 17 12 -2 3 -11 23 -20 44 -18 39 -33 50 -24 18 3
-15 -2 -20 -22 -24 -30 -6 -43 8 -38 41 2 12 1 22 -4 22 -4 0 -4 14 1 31 10
34 4 45 -66 122 -43 46 -90 52 -100 13 -6 -27 -28 -26 -38 1 -6 13 -4 14 9 3
15 -12 16 -9 13 31 -2 36 -6 43 -21 41 -10 -2 -24 0 -31 5 -6 4 -4 0 6 -9 10
-9 24 -18 31 -21 6 -2 9 -7 6 -11 -4 -4 -29 7 -55 24 -27 17 -66 33 -87 37
-25 4 -35 9 -29 17 5 6 12 19 16 30 5 15 2 17 -13 13 -16 -4 -18 0 -15 20 3
14 2 35 -2 46 -7 22 -7 22 -14 2 -4 -11 -3 -26 4 -34 8 -11 8 -13 -1 -8 -8 5
-9 -1 -4 -20 5 -18 3 -38 -6 -56 -14 -28 -22 -28 -56 1 -16 14 -17 14 -12 -1
4 -9 15 -19 25 -22 11 -4 17 -12 13 -21 -6 -16 12 -20 22 -4 3 6 17 10 31 10
18 0 24 -6 25 -22 l1 -23 6 22 c5 17 11 20 22 13 13 -8 12 -13 -8 -32 -22 -22
-24 -22 -37 -5 -8 12 -15 14 -20 8 -3 -6 -15 -11 -26 -11 -12 0 -19 -7 -19
-20 0 -11 -5 -20 -10 -20 -6 0 -9 -6 -8 -12 2 -9 -12 -13 -43 -13 -30 -1 -56
-8 -77 -24 -28 -20 -31 -25 -21 -44 6 -12 17 -29 25 -37 7 -8 13 -17 13 -20 0
-3 3 -13 7 -23 8 -23 -2 -33 -19 -19 -8 7 -17 9 -20 5 -4 -3 -7 1 -7 10 0 10
-4 17 -10 17 -5 0 -10 5 -10 11 0 6 7 9 15 5 8 -3 15 -2 15 3 0 15 -13 21 -26
10 -9 -7 -19 -7 -33 0 -27 15 -75 -3 -67 -25 12 -32 -3 -59 -34 -60 -17 -1
-30 3 -30 7 0 5 -8 9 -18 9 -24 0 -62 41 -62 67 0 13 8 23 21 26 12 3 18 10
14 16 -3 6 -2 11 4 11 5 0 13 -4 16 -10 3 -5 1 -10 -5 -10 -7 0 -2 -18 12 -42
18 -33 30 -44 52 -46 18 -2 26 0 21 7 -3 6 -10 9 -15 6 -11 -7 -32 30 -22 39
3 4 -1 4 -10 1 -12 -5 -17 2 -20 32 -3 21 -1 40 4 41 4 2 6 8 3 13 -3 5 -1 18
5 29 9 16 8 25 -1 36 -9 12 -9 13 3 9 8 -3 23 4 33 15 24 27 78 50 116 50 30
0 55 -19 84 -64 17 -26 65 -37 65 -16 0 6 -7 10 -16 10 -8 0 -22 7 -30 15 -14
13 -14 16 1 21 9 4 20 3 24 -2 3 -5 17 -11 31 -12 19 -3 22 -1 13 8 -6 7 -9
20 -5 29 5 13 3 14 -10 3 -8 -7 -22 -10 -31 -6 -8 3 -24 1 -35 -5 -16 -8 -21
-7 -25 8 -2 9 2 26 9 36 10 14 14 15 14 4 1 -11 3 -11 13 2 15 19 70 49 92 49
8 0 15 8 15 18 0 13 -2 14 -9 3 -6 -9 -11 -10 -15 -2 -10 15 2 31 17 25 9 -3
12 6 9 35 -3 34 -7 38 -25 33 -22 -5 -22 -5 -3 16 19 22 19 22 -2 22 -12 0
-27 -9 -34 -20 -7 -11 -20 -20 -28 -20 -9 0 -11 -3 -5 -8 17 -12 16 -52 -2
-52 -9 0 -13 6 -9 15 7 20 -1 19 -23 -2 -10 -10 -22 -34 -25 -53 -6 -33 -6
-34 7 -11 11 18 15 20 20 9 3 -8 -4 -29 -16 -47 l-20 -33 -16 28 -15 29 -7
-30 c-4 -16 -7 -24 -8 -17 0 7 -5 10 -11 7 -6 -4 -10 5 -10 20 0 14 -7 28 -15
31 -14 6 -13 8 2 19 10 8 15 17 10 21 -4 4 -13 2 -19 -4 -17 -17 -45 -15 -57
6 -8 13 -10 14 -11 2 0 -23 16 -43 29 -36 6 4 11 4 10 -1 -5 -27 1 -35 16 -23
12 10 16 9 21 -5 4 -9 2 -21 -5 -28 -8 -8 -21 -1 -52 28 -33 33 -39 45 -34 65
6 25 11 60 14 94 1 12 6 16 16 12 8 -3 15 -1 15 4 0 6 -7 10 -15 10 -9 0 -15
9 -15 22 0 21 1 21 32 -8 32 -28 32 -28 9 -2 -14 16 -21 31 -17 35 11 12 46
-40 40 -59 -3 -10 -1 -18 5 -18 6 0 11 5 11 11 0 5 5 7 10 4 6 -4 13 6 16 22
5 20 18 34 49 49 40 21 43 21 65 4 15 -11 19 -19 11 -24 -6 -4 -11 -16 -11
-27 0 -10 -6 -19 -12 -19 -22 0 -67 -65 -57 -81 7 -11 9 -11 9 3 0 10 9 23 20
30 11 7 20 19 20 26 0 7 5 10 10 7 6 -3 10 -1 10 5 0 6 5 8 11 4 8 -5 10 1 6
18 -5 19 -2 28 9 32 15 6 15 8 -2 24 -11 9 -19 23 -20 30 -4 44 -5 47 -15 23
-5 -14 -15 -21 -23 -18 -8 3 -20 -1 -26 -9 -7 -8 -16 -14 -21 -14 -4 0 5 14
21 32 16 17 28 36 27 42 -1 6 6 10 15 10 9 -1 19 4 22 11 9 23 -85 47 -99 25z
m135 -342 c0 -5 -13 -8 -29 -8 -28 0 -47 22 -36 40 6 10 65 -20 65 -32z m434
-234 c11 -4 16 -19 16 -44 0 -30 -4 -39 -22 -43 -30 -8 -32 -3 -11 30 16 26
16 27 0 14 -15 -12 -17 -12 -11 3 3 9 14 17 23 17 14 1 14 2 -1 6 -10 2 -18 9
-18 14 0 11 3 11 24 3z m6 -119 c0 -23 -2 -24 -20 -15 -23 12 -26 26 -7 33 23
10 27 7 27 -18z m-658 -65 c13 -5 42 -14 66 -20 25 -7 42 -17 42 -25 0 -17
-11 -19 -25 -6 -6 5 -36 16 -67 26 -32 10 -58 22 -58 26 0 12 14 11 42 -1z"/>
<path d="M1506 1862 c-7 -12 16 -22 50 -22 14 0 24 6 24 15 0 12 -4 13 -26 3
-20 -9 -27 -9 -33 1 -5 8 -11 9 -15 3z"/>
<path d="M1442 1835 c7 -9 21 -24 31 -34 10 -11 20 -25 21 -32 2 -8 8 -25 15
-39 10 -23 11 -21 5 15 -3 24 -15 47 -30 60 -13 11 -24 26 -24 33 0 7 -7 12
-15 12 -13 0 -14 -3 -3 -15z"/>
<path d="M956 1832 c6 -10 -17 -42 -27 -37 -5 4 -9 2 -9 -4 0 -15 18 -23 25
-11 4 6 11 8 16 5 16 -11 23 26 7 40 -8 7 -13 10 -12 7z"/>
<path d="M2292 1820 c-24 -23 -31 -40 -8 -21 7 6 20 9 29 5 10 -4 15 0 13 10
-4 26 -11 27 -34 6z"/>
<path d="M996 1794 c-5 -13 -2 -15 14 -11 11 3 20 1 20 -4 0 -5 5 -9 10 -9 7
0 7 6 0 20 -13 24 -36 26 -44 4z"/>
<path d="M1258 1785 c-3 -6 -6 -22 -6 -37 0 -19 6 -27 24 -31 16 -3 25 1 29
13 3 10 17 21 30 24 14 4 25 11 25 17 0 6 -5 7 -12 3 -17 -11 -58 -11 -58 -1
0 4 -4 6 -9 3 -5 -4 -11 -1 -13 6 -3 7 -7 8 -10 3z"/>
<path d="M1758 1771 c-29 -10 -5 -35 27 -27 15 4 24 3 21 -2 -3 -5 6 -7 20 -4
19 3 22 7 12 13 -7 5 -23 9 -35 9 -12 0 -23 4 -25 9 -1 4 -11 6 -20 2z"/>
<path d="M1410 1760 c0 -5 6 -10 13 -10 8 0 19 -10 25 -22 8 -17 11 -19 11 -6
1 18 -24 48 -40 48 -5 0 -9 -4 -9 -10z"/>
<path d="M1132 1737 c-7 -8 -8 -18 -4 -22 4 -5 2 -5 -5 -2 -19 12 -38 -2 -39
-28 l-2 -25 19 23 c10 12 18 17 19 12 0 -6 -6 -17 -12 -24 -11 -10 -10 -11 3
-6 9 3 21 22 27 42 13 41 11 50 -6 30z"/>
<path d="M2325 1740 c-3 -5 -1 -20 6 -32 l12 -22 9 23 c12 33 -10 58 -27 31z"/>
<path d="M2270 1678 c0 -29 3 -62 6 -74 5 -21 6 -20 35 5 38 33 36 59 -7 94
l-34 29 0 -54z"/>
<path d="M2566 1715 c-4 -12 -14 -14 -42 -9 -22 4 -45 2 -59 -6 -20 -11 -27
-11 -41 1 -14 12 -19 10 -40 -16 -13 -17 -24 -35 -24 -41 0 -25 170 26 220 66
19 15 21 20 9 20 -9 0 -20 -7 -23 -15z"/>
<path d="M1410 1707 c0 -12 -8 -17 -27 -17 -20 0 -24 -3 -14 -9 8 -5 11 -16 8
-25 -4 -9 -2 -16 3 -16 6 0 10 9 10 19 0 10 7 22 16 25 14 5 16 1 11 -23 -7
-32 9 -46 34 -30 12 8 12 10 0 18 -8 5 -16 20 -18 32 -4 29 -23 50 -23 26z"/>
<path d="M535 1688 l-28 -22 23 -8 c13 -5 26 -5 29 -2 3 4 0 9 -6 11 -7 3 -13
9 -13 14 0 4 6 6 14 3 16 -6 31 12 17 20 -5 3 -21 -4 -36 -16z"/>
<path d="M587 1688 c-8 -28 1 -42 18 -28 13 11 9 50 -5 50 -4 0 -10 -10 -13
-22z"/>
<path d="M1832 1703 c14 -3 15 -9 6 -34 -6 -17 -8 -32 -5 -35 3 -3 8 8 12 25
4 17 11 31 16 31 6 0 7 5 4 10 -3 6 -16 9 -28 9 -16 -1 -17 -3 -5 -6z"/>
<path d="M1597 1693 c-4 -6 5 -16 18 -23 19 -10 24 -20 22 -49 -1 -24 2 -35
11 -33 6 1 12 -2 12 -8 0 -5 -4 -10 -10 -10 -5 0 -10 -7 -10 -15 0 -21 -27
-30 -45 -15 -9 7 -18 10 -22 6 -12 -12 31 -35 66 -36 32 0 33 -1 19 -22 -8
-13 -30 -33 -48 -45 -39 -27 -18 -31 31 -6 40 20 155 20 176 0 3 -4 11 3 17
16 7 12 17 23 24 23 7 1 16 2 21 3 5 0 11 12 13 26 6 29 -24 44 -47 25 -12
-10 -15 -9 -16 6 0 13 -4 10 -11 -9 -8 -23 -15 -28 -34 -24 -15 3 -24 0 -24
-9 0 -7 -3 -15 -7 -17 -13 -7 -73 13 -73 24 0 6 7 9 15 5 8 -3 15 -1 15 4 0 5
7 7 15 4 11 -5 15 1 15 20 0 19 -7 29 -26 37 -15 5 -29 7 -31 5 -9 -8 8 -26
23 -26 9 0 14 -6 11 -12 -5 -14 -46 -13 -61 2 -6 6 -3 16 7 28 21 23 21 32 2
32 -9 0 -15 9 -15 21 0 17 5 20 25 17 41 -8 28 10 -15 22 -21 6 -43 18 -48 27
-5 9 -12 11 -15 6z"/>
<path d="M646 1653 c-4 -5 -22 -14 -39 -21 -27 -10 -28 -11 -6 -7 17 3 31 -1
39 -10 7 -8 16 -12 21 -9 11 6 12 24 2 23 -20 -3 -24 2 -13 16 13 15 9 21 -4
8z"/>
<path d="M491 1631 c-14 -25 -14 -70 0 -109 10 -31 41 -52 47 -33 2 6 16 8 33
4 24 -4 28 -3 23 10 -8 23 -36 30 -46 13 -5 -8 -15 -13 -23 -10 -19 8 -19 24
0 24 8 0 15 5 15 11 0 6 -9 8 -22 4 -13 -3 -18 -3 -12 2 12 9 26 53 17 53 -3
0 -12 -8 -19 -17 -12 -17 -13 -16 -14 5 0 13 6 22 15 22 8 0 15 6 15 14 0 24
-18 28 -29 7z"/>
<path d="M1363 1600 c14 -41 38 -64 49 -47 4 7 11 1 17 -15 17 -45 71 -70 119
-54 32 11 27 23 -8 18 -37 -5 -41 14 -5 28 25 9 62 67 50 78 -4 4 -11 -1 -16
-11 -7 -12 -18 -16 -40 -12 -32 6 -38 -6 -26 -56 3 -15 -33 -20 -52 -8 -14 9
-14 10 1 5 19 -6 33 23 18 38 -7 7 -10 6 -10 -2 0 -9 -8 -8 -25 4 -14 9 -25
13 -25 8 0 -5 -13 7 -30 26 l-29 35 12 -35z"/>
<path d="M980 1610 c1 -11 30 -43 30 -33 0 6 3 18 6 27 4 11 0 14 -15 13 -12
-1 -21 -4 -21 -7z"/>
<path d="M2363 1610 c-26 -10 -32 -50 -8 -50 14 0 94 18 125 28 10 3 6 9 -15
18 -35 15 -70 17 -102 4z"/>
<path d="M546 1603 c-3 -4 8 -13 25 -20 19 -8 29 -18 26 -26 -3 -8 -1 -20 4
-28 7 -11 9 -11 9 3 0 9 3 23 6 32 4 11 1 16 -10 16 -22 0 -20 17 2 23 15 4
15 5 0 6 -9 0 -20 -4 -23 -9 -5 -8 -11 -8 -19 -1 -7 6 -16 8 -20 4z"/>
<path d="M1062 1603 c-6 -2 -10 -9 -7 -13 3 -5 13 -6 22 -3 12 5 14 3 8 -8
-14 -21 -13 -47 1 -45 22 3 25 11 13 44 -11 32 -14 34 -37 25z"/>
<path d="M1955 1597 c-2 -7 -6 -31 -9 -54 -5 -35 -3 -43 9 -43 13 0 14 -2 3
-14 -7 -8 -14 -10 -16 -6 -2 5 -11 6 -20 3 -15 -6 -15 -5 -3 10 12 15 12 17
-3 11 -25 -10 -19 -30 15 -44 17 -7 37 -24 46 -37 13 -19 53 -33 53 -18 0 8
-40 46 -40 38 0 -9 -20 19 -20 28 0 4 28 12 63 18 60 11 63 11 82 -14 25 -30
35 -32 35 -7 0 10 -11 25 -25 32 -14 7 -25 17 -25 20 0 4 20 15 45 25 34 12
49 14 59 6 14 -12 46 -5 46 9 0 9 -32 22 -46 19 -5 -1 -17 1 -28 6 -13 6 -21
3 -28 -8 -5 -10 -16 -17 -24 -17 -8 0 -17 -7 -20 -15 -7 -17 -54 -21 -54 -5 0
6 -9 10 -20 10 -11 0 -20 -7 -20 -15 0 -16 -9 -19 -34 -9 -21 8 -20 24 2 24
25 1 68 35 53 44 -22 14 -72 16 -76 3z"/>
<path d="M2260 1525 c-86 -108 -208 -207 -187 -151 3 7 -3 18 -13 24 -14 9
-19 8 -24 -3 -3 -9 3 -19 15 -25 11 -6 17 -15 14 -21 -9 -14 -57 1 -86 27 -14
13 -29 24 -35 24 -5 0 -17 13 -26 30 -16 28 -61 41 -51 14 3 -7 11 -10 18 -8
7 3 16 -4 20 -15 3 -12 15 -26 26 -31 10 -6 19 -17 19 -25 0 -8 7 -15 15 -15
8 0 15 -4 15 -10 0 -5 -6 -10 -14 -10 -18 0 -30 -30 -17 -43 7 -7 19 -7 35 1
19 9 35 7 77 -8 29 -11 54 -18 56 -17 1 2 -11 16 -27 32 -34 32 -38 45 -14 45
20 0 78 43 131 97 23 24 47 43 53 43 6 0 8 5 5 11 -4 6 2 20 13 32 21 23 46
67 38 67 -2 0 -28 -29 -56 -65z"/>
<path d="M776 1566 c3 -7 0 -25 -5 -39 -6 -15 -7 -27 -2 -27 5 0 11 6 14 14 4
9 14 12 26 9 11 -3 29 -2 38 2 15 7 13 9 -12 14 -19 4 -29 12 -28 22 2 8 -5
15 -16 16 -12 1 -18 -3 -15 -11z"/>
<path d="M363 1515 c-55 -14 -94 -55 -109 -112 -13 -52 -6 -86 22 -97 16 -6
16 -8 -1 -26 -18 -20 -18 -20 16 -9 19 6 43 14 54 19 11 5 41 11 68 15 47 6
48 6 95 -42 26 -27 63 -61 83 -76 l35 -27 -53 -55 c-50 -52 -54 -59 -51 -98 3
-37 7 -44 38 -59 19 -9 39 -17 44 -18 5 0 6 38 3 89 -6 76 -4 92 11 110 17 21
18 21 62 4 25 -9 47 -20 50 -23 3 -3 23 -3 45 1 l40 5 -40 8 c-22 4 -60 15
-85 25 -38 15 -45 22 -48 48 -2 24 1 32 17 36 22 6 27 27 12 56 -8 13 -2 23
25 46 19 16 34 31 34 34 0 3 -29 7 -64 9 -64 2 -64 2 -87 -34 -28 -46 -33 -84
-11 -100 9 -7 14 -15 11 -18 -3 -4 -33 21 -66 55 -58 60 -60 64 -57 107 4 49
18 72 34 56 7 -7 4 -22 -9 -47 -10 -20 -16 -38 -14 -41 2 -2 20 11 40 29 37
34 40 60 7 60 -13 0 -19 7 -20 23 -3 55 -44 69 -131 47z m78 -23 c18 -18 19
-21 3 -58 -37 -91 -35 -90 -68 -89 -18 0 -36 -7 -44 -17 -14 -19 -42 -24 -42
-9 0 6 5 13 10 16 6 4 8 11 5 16 -4 5 1 9 10 9 12 0 13 4 6 18 -6 11 -6 24 0
33 11 17 12 45 2 35 -5 -4 -9 -12 -9 -17 -1 -5 -2 -13 -3 -19 -1 -12 -31 -1
-31 12 0 5 5 6 11 2 7 -4 9 1 7 12 -3 15 9 25 52 46 66 33 66 33 91 10z m-149
-140 c-14 -21 -17 -23 -20 -9 -4 21 16 49 29 41 5 -3 1 -17 -9 -32z m353 -49
c0 -17 -11 -40 -26 -57 l-27 -29 2 47 c0 29 7 50 16 56 25 16 35 11 35 -17z"/>
<path d="M793 1473 c-2 -37 11 -35 43 5 l21 27 -31 0 c-28 0 -31 -3 -33 -32z"/>
<path d="M2303 1495 c-18 -19 -17 -22 12 -29 37 -9 47 -37 33 -89 -15 -59 -8
-76 34 -72 18 2 41 4 51 4 9 1 26 10 36 20 18 18 20 36 12 83 -2 11 -67 48
-85 48 -21 0 -21 -26 2 -34 38 -15 61 -31 65 -46 5 -20 -11 -44 -37 -53 -16
-7 -17 -5 -5 9 11 14 10 15 -7 12 -11 -2 -18 2 -16 10 1 6 -3 12 -9 12 -5 0
-8 4 -5 9 6 10 -22 99 -37 119 -12 16 -29 15 -44 -3z"/>
<path d="M1020 1421 c0 -20 36 -71 50 -71 9 0 11 3 5 8 -28 20 -37 42 -25 57
10 13 9 15 -9 15 -11 0 -21 -4 -21 -9z"/>
<path d="M1402 1394 c-2 -48 23 -79 54 -67 16 6 14 8 -11 13 -27 5 -31 10 -36
50 l-6 45 -1 -41z"/>
<path d="M1093 1398 c-13 -6 -23 -15 -23 -20 0 -5 9 -4 19 2 29 15 39 12 44
-12 4 -16 5 -14 4 6 -2 34 -13 39 -44 24z"/>
<path d="M1881 1384 c10 -13 10 -17 -2 -26 -11 -8 -10 -9 4 -4 10 3 23 6 29 6
6 0 3 9 -7 20 -21 23 -44 27 -24 4z"/>
<path d="M2220 1376 c0 -8 5 -16 12 -18 10 -4 10 -16 0 -57 -20 -86 -19 -90
31 -84 90 11 100 69 22 123 -25 17 -45 35 -45 40 0 6 -4 10 -10 10 -5 0 -10
-6 -10 -14z"/>
<path d="M1836 1354 c-3 -8 -10 -12 -16 -9 -16 10 -12 -6 6 -26 9 -10 19 -32
23 -50 5 -25 12 -32 34 -35 25 -2 27 0 27 34 -1 35 -2 36 -15 18 -8 -11 -15
-23 -15 -28 0 -4 -4 -8 -10 -8 -15 0 -12 36 5 50 22 18 18 32 -6 25 -19 -6
-21 -4 -16 14 6 25 -8 38 -17 15z"/>
<path d="M757 1344 c-15 -8 -27 -17 -27 -19 0 -3 27 -4 59 -3 33 2 59 4 58 4
-1 1 -16 8 -32 17 -26 13 -34 13 -58 1z"/>
<path d="M1362 1334 l-23 -12 28 -4 c15 -3 36 -9 46 -13 25 -11 21 10 -5 27
-18 11 -28 12 -46 2z"/>
<path d="M1041 1328 c-1 -10 -5 -18 -11 -18 -5 0 -10 -9 -10 -20 0 -11 5 -20
11 -20 6 0 9 7 5 15 -4 11 1 15 19 15 14 0 25 5 25 10 0 6 -6 10 -14 10 -8 0
-17 6 -19 13 -3 7 -6 5 -6 -5z"/>
<path d="M1485 1310 c-14 -15 -20 -17 -26 -8 -4 7 -11 9 -16 5 -4 -5 -2 -12 6
-16 7 -5 11 -14 10 -22 -1 -8 1 -27 6 -42 l7 -28 13 24 c10 20 27 107 21 107
-2 0 -11 -9 -21 -20z"/>
<path d="M1256 1307 c-16 -12 -17 -14 -1 -27 20 -17 41 0 28 24 -7 14 -12 14
-27 3z"/>
<path d="M1990 1272 c0 -5 11 -19 25 -32 28 -26 33 -16 9 18 -15 22 -34 30
-34 14z"/>
<path d="M403 1258 c-13 -6 -23 -15 -23 -19 0 -4 -12 -22 -26 -39 -15 -17 -24
-33 -22 -35 3 -3 22 4 44 15 21 11 58 25 82 31 42 10 43 11 29 32 -16 25 -52
31 -84 15z"/>
<path d="M1201 1257 c-7 -10 -8 -22 -2 -38 l9 -24 11 29 c13 33 1 55 -18 33z"/>
<path d="M2125 1259 c-4 -6 -13 -8 -21 -5 -8 3 -31 -11 -54 -34 -22 -22 -46
-40 -54 -40 -8 0 -23 14 -34 31 -11 17 -22 27 -26 21 -3 -5 4 -22 16 -37 l21
-27 -24 7 c-13 4 -31 14 -40 21 -20 18 -30 18 -23 0 3 -7 -1 -20 -8 -27 -8 -8
-20 -29 -27 -46 -7 -18 -20 -33 -27 -33 -8 0 -14 -10 -14 -24 0 -13 -6 -29
-14 -35 -10 -8 -13 -29 -11 -69 3 -37 1 -51 -5 -42 -8 12 -10 10 -10 -8 0 -13
-5 -33 -11 -44 -14 -26 3 -70 24 -62 20 7 25 -25 11 -66 -7 -19 -13 -27 -13
-17 -1 9 -9 33 -20 52 -15 29 -20 32 -25 18 -6 -15 -8 -15 -16 -3 -8 13 -10
12 -10 -2 0 -10 5 -18 10 -18 6 0 3 -11 -6 -26 -12 -17 -14 -28 -6 -36 7 -7
12 -3 17 12 6 18 9 20 17 9 6 -10 7 -7 3 10 -5 17 -4 22 6 19 9 -3 15 -25 17
-64 l2 -59 -18 40 c-15 33 -19 36 -25 20 -4 -10 -3 -21 2 -24 5 -4 13 -19 16
-34 9 -35 19 -34 54 5 l28 32 29 -41 c16 -23 37 -56 48 -74 12 -22 20 -29 24
-20 2 7 -14 40 -37 73 -23 33 -40 63 -37 65 7 8 133 -54 196 -97 34 -23 65
-39 68 -35 11 12 -89 95 -146 122 -30 14 -73 25 -102 26 -28 1 -50 6 -50 10 0
4 0 13 0 21 0 21 30 48 46 42 8 -3 27 -1 42 5 25 10 26 11 8 21 -14 8 -24 8
-37 -1 -11 -6 -30 -11 -44 -11 -20 0 -25 5 -25 23 0 21 5 24 45 25 25 0 43 -4
39 -9 -3 -5 1 -9 9 -9 7 0 26 -13 42 -30 l29 -30 -38 0 c-23 0 -45 -7 -58 -20
l-22 -20 80 4 c43 2 87 7 96 11 30 12 53 1 70 -33 24 -49 32 -52 24 -11 -6 36
-6 36 34 43 59 9 51 28 -9 20 -42 -5 -50 -3 -63 14 -17 25 -65 45 -73 32 -3
-5 9 -17 27 -27 l33 -18 -27 -3 c-27 -3 -68 23 -68 44 0 15 33 24 86 24 110 0
145 34 47 45 -32 4 -65 9 -75 11 -9 3 -19 0 -23 -6 -3 -5 -19 -10 -35 -10 -31
0 -48 -25 -23 -34 9 -4 13 -9 9 -13 -3 -3 -19 7 -35 22 l-28 29 26 38 c14 20
33 37 41 37 28 -2 32 1 20 16 -10 12 -9 20 4 40 19 29 8 32 -36 9 -35 -18 -30
-2 9 29 26 21 31 42 8 33 -13 -4 -14 2 -9 37 5 35 4 40 -7 30 -7 -7 -23 -13
-35 -13 -12 0 -33 -10 -48 -21 l-27 -21 16 37 c30 75 52 82 102 36 21 -18 34
-25 38 -17 3 6 3 -2 0 -17 -4 -17 -2 -26 4 -23 6 4 7 -4 1 -23 -7 -24 -5 -29
7 -24 11 4 14 20 11 67 l-3 60 39 19 c40 19 52 16 58 -18 2 -11 19 -29 38 -40
26 -14 35 -26 32 -40 -7 -35 -29 -45 -67 -29 -43 18 -56 18 -49 0 3 -8 12 -12
20 -9 23 9 17 -37 -11 -73 -30 -39 -30 -40 -5 -40 14 0 23 9 26 26 3 14 8 32
10 41 7 24 43 12 50 -17 3 -13 12 -28 20 -35 15 -13 19 -34 5 -24 -5 3 -12 1
-16 -5 -7 -11 27 -20 65 -18 14 1 34 -3 45 -7 18 -8 19 -7 5 10 -11 15 -3 13
35 -9 28 -16 65 -40 83 -53 18 -14 36 -23 39 -20 2 3 -3 22 -13 42 -11 24 -22
34 -32 30 -9 -3 -12 0 -9 9 3 7 0 19 -6 26 -9 10 -7 11 12 5 16 -5 21 -4 17 4
-8 12 -39 15 -49 4 -4 -3 -2 -12 4 -20 16 -19 -20 -17 -45 2 -11 8 -30 15 -43
15 -16 0 -23 6 -23 19 0 23 25 34 48 22 27 -13 44 -3 32 20 -6 10 -8 31 -5 46
3 16 3 23 -1 16 -3 -7 -12 -9 -20 -6 -10 3 -16 -4 -20 -26 -6 -28 -15 -36 -37
-32 -18 3 -35 -25 -25 -43 11 -19 1 -37 -10 -20 -4 6 -14 13 -23 16 -9 4 -19
18 -21 32 -4 21 -3 24 13 16 13 -7 17 -6 15 5 -1 8 -5 18 -9 21 -9 10 12 34
29 34 8 0 14 5 14 11 0 5 5 7 10 4 16 -10 12 -25 -10 -33 -13 -5 -17 -11 -10
-21 6 -11 14 -8 39 17 36 35 40 57 10 49 -16 -4 -20 -1 -17 16 2 12 9 21 17
19 16 -3 9 20 -7 26 -7 2 -19 -12 -27 -31 -20 -48 -40 -54 -40 -11 0 18 -3 33
-7 31 -4 -1 -15 8 -23 21 -9 12 -22 22 -29 22 -10 0 -12 12 -8 45 4 44 0 56
-13 34z m-195 -220 c-7 -16 -16 -29 -21 -29 -5 0 -9 -10 -9 -21 0 -12 -14 -37
-31 -57 -17 -20 -38 -50 -45 -68 -15 -35 -44 -53 -44 -27 0 9 3 13 7 10 10
-11 35 63 37 110 1 45 15 64 76 106 39 26 48 20 30 -24z m44 -64 c-4 -8 -10
-15 -15 -15 -5 0 -23 -25 -40 -55 -29 -51 -49 -69 -49 -44 0 16 58 96 82 114
28 19 29 19 22 0z"/>
<path d="M1706 1252 c-3 -3 -6 -10 -6 -15 0 -6 3 -7 6 -4 4 3 16 0 28 -8 22
-16 36 -19 36 -7 0 10 -57 41 -64 34z"/>
<path d="M1960 1252 c0 -5 11 -19 25 -32 19 -18 25 -20 25 -8 0 9 -11 23 -25
32 -14 9 -25 13 -25 8z"/>
<path d="M1396 1213 c10 -40 12 -43 40 -41 16 2 23 7 19 16 -3 8 -5 21 -5 30
-1 15 -2 15 -11 0 -12 -22 -29 -23 -29 -4 0 8 -5 18 -10 21 -7 4 -8 -3 -4 -22z"/>
<path d="M1256 1185 c-8 -9 -22 -12 -33 -8 -13 4 -15 3 -8 -5 6 -7 25 -15 43
-18 30 -6 32 -4 32 20 0 29 -11 33 -34 11z"/>
<path d="M1326 1191 c-3 -5 -2 -21 4 -35 7 -20 6 -26 -4 -26 -8 0 -17 -11 -20
-24 -3 -14 -15 -28 -26 -31 -20 -6 -29 -45 -10 -45 6 0 10 7 10 17 0 9 3 14 6
10 8 -7 34 17 34 32 0 6 12 17 28 24 33 17 102 22 102 7 0 -5 8 -10 18 -11 16
0 82 -79 82 -99 0 -5 -15 -7 -32 -4 -31 5 -32 4 -14 -10 10 -8 24 -17 30 -19
6 -2 4 -11 -8 -22 -17 -18 -17 -19 8 -32 32 -17 50 -8 41 21 -10 32 -14 66 -8
66 3 0 12 -8 20 -17 13 -16 14 -9 9 54 -6 66 -5 72 11 66 16 -6 16 -4 5 9 -7
9 -22 16 -32 15 -15 -1 -16 -5 -9 -19 6 -10 7 -22 4 -27 -3 -5 -1 -21 5 -35
14 -37 -5 -42 -36 -11 -17 17 -23 30 -16 34 6 3 14 20 18 36 6 25 5 28 -7 18
-16 -13 -64 -6 -79 12 -8 9 -21 10 -48 4 -53 -12 -53 -12 -50 18 2 19 -2 28
-14 31 -9 2 -19 -1 -22 -7z"/>
<path d="M2070 1172 c0 -13 23 -32 37 -32 11 0 11 5 3 20 -10 19 -40 28 -40
12z"/>
<path d="M2440 1151 c0 -5 13 -12 29 -16 19 -4 28 -11 25 -20 -3 -7 0 -16 7
-21 9 -5 10 -2 6 9 -4 10 -1 17 6 17 7 0 -3 9 -21 20 -35 22 -52 25 -52 11z"/>
<path d="M1648 1076 c-17 -23 -17 -24 2 -19 16 4 20 0 20 -18 0 -18 3 -20 12
-11 9 9 9 15 0 24 -9 9 -8 16 5 30 15 17 15 18 -3 18 -10 0 -27 -11 -36 -24z"/>
<path d="M1740 1072 c-17 -19 -15 -38 10 -95 l19 -42 -2 72 c-1 39 -4 74 -7
76 -3 3 -12 -2 -20 -11z"/>
<path d="M2455 1070 c-3 -5 3 -10 14 -10 11 0 22 -4 25 -9 8 -12 -20 -34 -36
-29 -7 3 -18 -6 -25 -20 -16 -29 -17 -52 -3 -52 6 0 10 11 10 25 0 27 31 48
38 27 2 -7 11 -12 20 -11 11 0 12 2 5 6 -16 6 -17 29 -3 38 6 4 17 1 25 -5 12
-10 15 -10 15 0 0 7 7 10 14 7 10 -4 13 -1 9 9 -6 16 -23 19 -23 3 0 -5 -4 -8
-10 -4 -5 3 -7 13 -4 23 5 13 4 14 -4 3 -7 -10 -14 -10 -30 -2 -25 14 -29 14
-37 1z"/>
<path d="M1460 1046 c0 -14 5 -26 10 -26 6 0 10 7 10 15 0 8 0 18 1 22 0 4 -4
9 -10 11 -6 2 -11 -8 -11 -22z"/>
<path d="M983 1049 c-13 -5 -25 -20 -28 -36 -3 -15 -10 -46 -15 -68 -5 -21 -7
-41 -5 -43 8 -8 25 10 25 27 0 10 13 36 28 57 15 21 31 44 35 50 9 16 -13 23
-40 13z"/>
<path d="M2585 1010 c4 -14 3 -20 -3 -16 -5 3 -21 0 -35 -7 -22 -12 -23 -15
-11 -32 14 -18 14 -18 14 2 0 25 15 38 26 22 3 -6 2 -14 -4 -18 -12 -7 -1 -33
14 -33 5 0 8 -5 6 -11 -2 -8 1 -8 10 1 10 10 10 16 0 32 -7 11 -10 31 -6 44 3
14 1 27 -6 31 -9 5 -10 1 -5 -15z"/>
<path d="M1250 1004 c0 -14 -3 -14 -15 -4 -33 28 -12 2 33 -39 26 -25 44 -41
40 -36 -4 4 0 14 10 21 15 11 15 13 -10 19 -29 7 -60 35 -39 35 6 0 11 5 11
10 0 6 -7 10 -15 10 -8 0 -15 -7 -15 -16z"/>
<path d="M1655 981 c-7 -13 2 -31 16 -31 6 0 7 4 4 10 -4 6 1 7 11 3 12 -4 15
-2 12 8 -6 17 -34 24 -43 10z"/>
<path d="M1383 940 c3 -11 1 -23 -4 -26 -5 -3 -9 0 -9 7 0 7 -3 9 -6 6 -4 -4
-1 -13 5 -21 10 -11 9 -21 -3 -44 -14 -27 -14 -28 7 -26 12 1 24 3 27 3 3 1
-2 6 -10 11 -10 6 -11 10 -2 10 6 0 11 3 10 8 -5 15 23 52 40 52 9 0 23 9 30
20 7 11 8 20 3 20 -5 0 -11 -7 -15 -15 -3 -8 -12 -15 -20 -15 -8 0 -21 7 -30
15 -20 21 -29 19 -23 -5z"/>
<path d="M1631 944 c1 -27 17 -72 18 -54 1 12 3 12 11 -2 11 -18 9 -100 -2
-108 -8 -6 -13 -69 -8 -110 1 -15 7 -1 14 35 6 33 16 59 22 58 6 -1 8 11 6 29
-3 19 -1 29 6 25 5 -4 12 4 14 17 5 25 -12 56 -31 56 -6 0 -11 5 -11 11 0 5 5
7 12 3 7 -4 8 -3 4 5 -4 6 -12 9 -17 6 -5 -4 -9 0 -9 8 0 8 -7 20 -15 27 -12
10 -15 9 -14 -6z"/>
<path d="M1195 910 c0 -16 5 -30 12 -30 6 0 25 -13 41 -29 26 -27 28 -31 15
-55 -8 -15 -11 -30 -8 -35 3 -5 -16 -23 -42 -40 -96 -61 -101 -73 -39 -85 41
-8 71 -36 38 -36 -20 0 -21 -1 -4 -30 l17 -30 95 1 c52 1 85 4 73 6 -18 3 -23
11 -23 34 0 18 -4 28 -10 24 -5 -3 -10 -14 -10 -24 0 -10 -9 -21 -19 -24 -17
-4 -19 0 -16 32 2 20 -1 41 -6 48 -7 8 -6 19 1 34 10 17 9 23 -1 30 -10 6 -15
3 -18 -9 -2 -9 -7 -22 -12 -27 -4 -6 -6 -32 -4 -58 5 -48 1 -54 -24 -38 -12 8
-13 14 -3 36 11 24 10 27 -7 32 -28 7 -34 31 -10 38 10 4 19 11 19 17 0 6 9
18 20 28 12 11 23 37 28 71 6 42 12 54 25 53 22 -2 22 9 -2 30 -13 11 -32 16
-57 14 -36 -3 -39 -1 -39 22 0 14 -7 26 -15 28 -11 2 -15 -6 -15 -28z"/>
<path d="M2120 925 c0 -8 -4 -15 -10 -15 -5 0 -10 -7 -10 -15 0 -21 24 -19 44
4 17 19 17 20 -3 31 -17 9 -21 8 -21 -5z"/>
<path d="M2512 920 c-11 -28 -6 -42 8 -20 8 12 10 10 11 -10 1 -18 3 -20 6 -7
4 17 5 17 17 1 7 -9 18 -14 24 -10 17 10 15 26 -2 20 -9 -3 -17 3 -21 15 -3
12 -10 19 -15 16 -5 -3 -10 1 -13 7 -3 8 -9 3 -15 -12z"/>
<path d="M1480 923 c0 -7 10 -22 23 -34 18 -18 19 -21 3 -15 -14 5 -17 2 -12
-10 3 -8 6 -20 6 -25 0 -5 5 -9 10 -9 6 0 10 7 10 15 0 9 9 15 21 15 21 0 21
1 -4 26 -14 14 -29 25 -33 24 -4 -1 -11 4 -15 12 -6 9 -9 9 -9 1z"/>
<path d="M2445 910 c1 -11 5 -23 10 -27 4 -5 5 -2 1 5 -4 6 -3 12 1 12 5 0 18
7 29 15 18 14 17 14 -12 15 -24 0 -30 -4 -29 -20z"/>
<path d="M1983 894 c-29 -15 -53 -30 -53 -35 0 -12 2 -12 38 7 18 8 36 13 42
9 5 -3 10 -2 10 4 0 6 16 13 36 17 25 5 32 9 22 15 -21 14 -40 10 -95 -17z"/>
<path d="M2474 849 c-7 -12 37 -18 62 -9 13 5 24 11 24 13 0 7 -81 3 -86 -4z"/>
<path d="M1408 823 c-26 -4 -27 -7 -24 -50 2 -25 9 -49 15 -53 7 -3 9 -14 5
-24 -5 -14 -9 -14 -22 -4 -12 10 -14 10 -8 1 5 -9 1 -13 -11 -13 -15 0 -13 -5
10 -26 16 -14 31 -23 35 -19 4 4 1 10 -5 12 -21 7 -15 23 12 33 21 8 24 14 19
36 -4 15 -15 35 -25 45 -27 27 -24 34 14 37 18 1 27 -1 20 -6 -8 -5 -9 -20 -2
-57 15 -75 17 -79 33 -66 21 18 40 -14 37 -62 -3 -51 -15 -66 -40 -50 -14 9
-18 8 -18 -3 0 -10 13 -14 44 -14 25 0 42 4 38 9 -10 18 16 23 34 7 21 -20
116 -22 128 -3 9 15 11 139 1 129 -3 -4 -15 -36 -26 -72 -16 -52 -21 -60 -26
-42 -6 19 -13 22 -39 17 -41 -7 -58 5 -63 44 -3 22 1 31 11 31 8 0 15 -4 15
-10 0 -5 5 -9 12 -7 7 1 17 -8 23 -20 12 -29 45 -31 45 -3 0 11 -6 20 -13 20
-7 0 -26 14 -42 30 -16 17 -34 29 -40 27 -5 -3 -18 0 -28 5 -13 7 -26 5 -43
-7 l-24 -15 0 60 c0 33 3 60 7 60 4 0 24 -19 44 -42 20 -24 40 -40 44 -37 3 4
-4 28 -16 53 -22 48 -35 61 -26 26 3 -11 1 -18 -4 -14 -5 3 -9 12 -9 20 0 8
-6 14 -12 15 -7 0 -22 2 -33 3 -11 1 -32 1 -47 -1z"/>
<path d="M1390 598 c0 -10 5 -16 10 -13 6 3 10 1 10 -4 0 -6 5 -11 10 -11 19
0 10 38 -10 43 -15 4 -20 0 -20 -15z"/>
</g>
</svg>
